<svg xmlns="http://www.w3.org/2000/svg" viewBox="0 0 48 48"><defs><style>.a,.b,.c{fill:none;}.b,.c{stroke:#000;stroke-linecap:round;stroke-width:2px;}.b{stroke-linejoin:round;}.c{stroke-miterlimit:10;}</style></defs><title>175_t_24</title><rect class="a" width="48" height="48"/><polyline class="b" points="34.32 35 32 46 16 46 12 27 36 27 35.37 30 34.32 35 19.68 35"/><path class="c" d="M18.82,7.43C15,5.3,9.4,8,9.4,8s.73,6.1,4.6,8.23,9.42-.53,9.42-.53S22.69,9.56,18.82,7.43Z"/><path class="c" d="M31,17a7,7,0,0,0,3-.81C37.87,14.06,38.6,8,38.6,8s-5.55-2.66-9.42-.53S24,16,24,16V27"/></svg>